<svg xmlns="http://www.w3.org/2000/svg" xmlns:xlink="http://www.w3.org/1999/xlink" width="221.193" height="83.434" viewBox="0 0 221.193 83.434"><defs><linearGradient id="a" x1="-0.003" y1="0.541" x2="0.999" y2="0.388" gradientUnits="objectBoundingBox"><stop offset="0" stop-color="#4086c1"/><stop offset="0.215" stop-color="#9ed8f4"/><stop offset="0.414" stop-color="#adc889"/><stop offset="0.639" stop-color="#f1ca16"/><stop offset="0.846" stop-color="#ee7523"/><stop offset="1" stop-color="#711c12"/></linearGradient></defs><g transform="translate(-82.253 -82.03)"><g transform="translate(113.635 82.03)"><path d="M154.852,87.874c0-4.347.188-4.114-4.018-4.627V82.03H163.41v1.217c-4.205.513-4.018.279-4.018,4.627v9.253a5.238,5.238,0,0,0,3.505-1.872l9.532-9.578c2.055-2.105-.842-2.476-2.526-2.43V82.03h8.649v1.217c-1.355.563-3.13,2.384-5.048,4.3l-9.628,9.628c4.86,5.189,11.779,14.209,16.268,16.872v.7h-4.91c-1.821,0-2.851-1.638-4.768-4.018L160.417,98.3h-1.03V108.91c0,4.347-.188,4.114,4.018,4.627v1.217H150.83v-1.217c4.205-.513,4.018-.279,4.018-4.627V87.874Z" transform="translate(-150.83 -82.03)" fill="#290a11"/><path d="M212.92,113.663A12.143,12.143,0,0,1,225.4,101.23c5.844,0,11.637,3.972,11.637,12.058a12.15,12.15,0,0,1-12.479,12.433C218.576,125.726,212.92,121.658,212.92,113.663Zm19.495-.137c0-5.189-2.2-10.658-7.665-10.658-4.018,0-7.2,3.414-7.2,10.612,0,5.981,2.663,10.612,7.761,10.612C229.188,124.088,232.415,120.77,232.415,113.526Z" transform="translate(-184.507 -92.444)" fill="#290a11"/><path d="M271.393,96.237c0-2.151-1.451-1.963-3.693-1.963V93.056a17.22,17.22,0,0,0,7.807-1.963l.092.092v25.334c0,7.944-3.693,10.191-7.386,10.191v-.984a3.485,3.485,0,0,0,2.663-2.618,25.993,25.993,0,0,0,.513-5.423V96.237Zm2.009-13.7a2.786,2.786,0,0,1,2.759,2.709,2.818,2.818,0,0,1-2.709,2.759,2.734,2.734,0,0,1-.05-5.469Z" transform="translate(-214.218 -82.307)" fill="#290a11"/><path d="M293.72,113.663A12.143,12.143,0,0,1,306.2,101.23c5.844,0,11.637,3.972,11.637,12.058a12.15,12.15,0,0,1-12.479,12.433C299.376,125.726,293.72,121.658,293.72,113.663Zm19.495-.137c0-5.189-2.2-10.658-7.665-10.658-4.018,0-7.2,3.414-7.2,10.612,0,5.981,2.663,10.612,7.761,10.612C309.988,124.088,313.215,120.77,313.215,113.526Z" transform="translate(-228.331 -92.444)" fill="#290a11"/><path d="M356.249,119.314c0,4.206-.233,4.068,3.739,4.627v1.217H348.3v-1.217c3.972-.563,3.739-.421,3.739-4.627V106.368c0-2.151-1.451-1.963-3.739-1.963v-1.217a17.261,17.261,0,0,0,7.853-1.963l.092.092v4.018a12.428,12.428,0,0,1,9.441-4.114c5.7,0,6.823,3.414,6.823,8.274v9.816c0,4.206-.233,4.068,3.739,4.627v1.217H364.559v-1.217c3.972-.563,3.739-.421,3.739-4.627v-8.6c0-2.947-.188-7.056-5.144-7.056-5.981,0-6.919,5.144-6.919,9.958v5.7Z" transform="translate(-257.934 -92.438)" fill="#290a11"/><path d="M427.549,125.726a5.787,5.787,0,0,1-1.075-3.6l-4.114,2.384a7.438,7.438,0,0,1-4.347,1.217c-5.377,0-6.823-3.881-6.823-9.116V106.378c0-2.151-1.451-1.963-3.739-1.963V103.2a17.558,17.558,0,0,0,7.853-1.963l.092.092V116.19c0,3.505.563,6.777,4.672,6.777,4.347,0,6.4-2.338,6.4-9.253v-7.34c0-2.151-1.451-1.963-3.739-1.963v-1.217a17.261,17.261,0,0,0,7.853-1.963l.092.092v17.81c0,2.384.142,4.393,3.272,3.18l.279,1.309Z" transform="translate(-290.016 -92.444)" fill="#290a11"/><path d="M473.064,131a17.328,17.328,0,0,0,.188,3.318c.188.984,1.872,1.075,4.814,1.309v1.217H465.12v-1.217c3.972-.563,3.739-.421,3.739-4.626V106.368c0-2.151-1.451-1.963-3.739-1.963v-1.217a17.261,17.261,0,0,0,7.853-1.963l.092.092v3.739h.092a10.047,10.047,0,0,1,7.761-3.835c5.144,0,9.77,2.851,9.77,11.779,0,5.423-3.926,12.713-12.012,12.713a13.645,13.645,0,0,1-5.61-1.03Zm0-9.07a7.63,7.63,0,0,0,5.377,2.151c6.777,0,7.619-6.823,7.619-11.033,0-7.2-3.505-9.628-7.056-9.628a5.252,5.252,0,0,0-5.144,3.505,21.894,21.894,0,0,0-.8,6.823Z" transform="translate(-321.295 -92.438)" fill="#290a11"/></g><g transform="translate(132.43 129.377)"><g transform="translate(0 0)"><path d="M193.8,228.27c40.06,12.983,13.184-38.4,170.147-12.273C220.941,175.667,226.327,238.168,193.8,228.27Z" transform="translate(-192.931 -194.605)" fill="#290a11"/><path d="M362.916,206.89C224.263,149.555,226.464,226.449,191.9,218.88c.288.1.586.192.874.279C225.3,229.057,219.911,166.556,362.916,206.89Z" transform="translate(-191.9 -185.494)" fill="url(#a)"/></g></g><g transform="translate(82.253 122.497)"><path d="M176.461,208c-.041,0-.087,0-.133,0-.128-.009-.252-.018-.38-.032a1.83,1.83,0,0,1,.352-3.643c.1.009.188.018.284.023a1.83,1.83,0,0,1-.124,3.656Zm3.917-.165a1.828,1.828,0,0,1-.288-3.633l.3-.05a1.829,1.829,0,1,1,.636,3.6l-.352.06A2.174,2.174,0,0,1,180.378,207.834Zm-8.086-.682a1.869,1.869,0,0,1-.586-.1l-.352-.124a1.83,1.83,0,1,1,1.245-3.441l.279.1a1.831,1.831,0,0,1-.586,3.565Zm12.177-.5a1.83,1.83,0,0,1-.728-3.51l.265-.119a1.829,1.829,0,0,1,1.528,3.322l-.343.151A1.775,1.775,0,0,1,184.47,206.648Zm-16.007-1.359a1.825,1.825,0,0,1-1-.3c-.105-.069-.21-.142-.316-.211a1.829,1.829,0,0,1,2.078-3.011c.078.055.156.105.238.156a1.83,1.83,0,0,1-1,3.364Zm19.668-.81a1.828,1.828,0,0,1-1.13-3.267l.238-.188a1.829,1.829,0,0,1,2.3,2.842l-.284.224A1.8,1.8,0,0,1,188.13,204.479Zm-22.913-1.94a1.831,1.831,0,0,1-1.35-.595l-.243-.27a1.827,1.827,0,1,1,2.732-2.425l.2.224a1.834,1.834,0,0,1-.11,2.586A1.8,1.8,0,0,1,165.218,202.539Zm25.915-1.071a1.831,1.831,0,0,1-1.446-2.952l.178-.233a1.828,1.828,0,0,1,2.933,2.183c-.073.1-.146.2-.224.293A1.809,1.809,0,0,1,191.132,201.468Zm-28.372-2.4a1.829,1.829,0,0,1-1.615-.97l-.169-.32a1.83,1.83,0,0,1,3.258-1.666l.137.265a1.829,1.829,0,0,1-.755,2.476A1.8,1.8,0,0,1,162.76,199.07Zm30.537-1.263a1.868,1.868,0,0,1-.728-.151,1.828,1.828,0,0,1-.952-2.407l.114-.275a1.831,1.831,0,0,1,3.386,1.391l-.142.339A1.825,1.825,0,0,1,193.3,197.807ZM161.241,195.1a1.83,1.83,0,0,1-1.776-1.4l-.082-.357a1.83,1.83,0,0,1,3.574-.792l.069.293a1.83,1.83,0,0,1-1.35,2.21A2.036,2.036,0,0,1,161.241,195.1Zm33.251-1.373a2.042,2.042,0,0,1-.288-.023,1.831,1.831,0,0,1-1.519-2.1l.041-.288a1.829,1.829,0,1,1,3.624.49l-.055.371A1.831,1.831,0,0,1,194.491,193.725ZM160.76,190.87h-.018a1.83,1.83,0,0,1-1.812-1.849c0-.124,0-.252.009-.375a1.829,1.829,0,1,1,3.656.114l0,.293A1.83,1.83,0,0,1,160.76,190.87Zm33.855-1.4a1.832,1.832,0,0,1-1.821-1.661l-.032-.288a1.829,1.829,0,0,1,3.633-.421l.041.371a1.825,1.825,0,0,1-1.652,1.991A1.05,1.05,0,0,1,194.615,189.469Zm-33.273-2.814a1.926,1.926,0,0,1-.481-.064,1.832,1.832,0,0,1-1.286-2.247c.032-.119.064-.243.1-.361a1.83,1.83,0,1,1,3.51,1.039l-.078.284A1.835,1.835,0,0,1,161.342,186.655Zm32.354-1.313a1.828,1.828,0,0,1-1.721-1.213l-.1-.279a1.831,1.831,0,0,1,3.423-1.3c.046.114.087.229.128.348a1.83,1.83,0,0,1-1.107,2.338A2,2,0,0,1,193.7,185.342Zm-30.738-2.622a1.831,1.831,0,0,1-1.593-2.732c.059-.11.124-.215.188-.32a1.83,1.83,0,0,1,3.148,1.867l-.146.256A1.838,1.838,0,0,1,162.957,182.72Zm28.812-1.171a1.821,1.821,0,0,1-1.51-.8l-.174-.247a1.828,1.828,0,1,1,2.984-2.114l.206.3a1.831,1.831,0,0,1-.476,2.544A1.852,1.852,0,0,1,191.769,181.548ZM165.5,179.31a1.828,1.828,0,0,1-1.313-3.1l.252-.256a1.828,1.828,0,1,1,2.59,2.581l-.211.215A1.826,1.826,0,0,1,165.5,179.31Zm23.453-.952a1.835,1.835,0,0,1-1.2-.453l-.229-.2a1.831,1.831,0,1,1,2.37-2.791l.275.233a1.837,1.837,0,0,1-1.213,3.212Zm-20.144-1.721a1.828,1.828,0,0,1-.966-3.382l.316-.192a1.83,1.83,0,0,1,1.867,3.148l-.252.151A1.864,1.864,0,0,1,168.81,176.638Zm16.63-.677a1.829,1.829,0,0,1-.833-.2l-.261-.133a1.83,1.83,0,1,1,1.593-3.295l.334.165a1.833,1.833,0,0,1-.833,3.464Zm-12.763-1.085a1.83,1.83,0,0,1-.54-3.579c.119-.037.238-.073.357-.105a1.831,1.831,0,0,1,1.011,3.519l-.284.082A1.872,1.872,0,0,1,172.677,174.876Zm8.763-.362a1.688,1.688,0,0,1-.4-.046l-.288-.064a1.83,1.83,0,1,1,.723-3.588c.119.023.243.05.362.078a1.832,1.832,0,0,1-.4,3.62Zm-4.572-.384a1.829,1.829,0,0,1-.092-3.656c.128,0,.252-.014.38-.014a1.829,1.829,0,1,1,.1,3.656c-.1,0-.192,0-.284.009A.849.849,0,0,1,176.869,174.13Z" transform="translate(-123.841 -170.46)" fill="#711c12"/><path d="M182.68,208.906a.778.778,0,0,1-.105,0l-.38-.027a1.83,1.83,0,0,1,.307-3.647c.1.009.188.014.284.023a1.83,1.83,0,0,1-.105,3.656Zm3.89-.4a1.828,1.828,0,0,1-.481-3.592l.279-.078a1.83,1.83,0,1,1,1.039,3.51c-.119.037-.238.069-.362.1A2.085,2.085,0,0,1,186.57,208.507Zm-8.022-.581a1.83,1.83,0,0,1-.723-.151c-.119-.05-.233-.105-.352-.16a1.828,1.828,0,0,1,1.547-3.313c.082.041.169.078.256.114a1.83,1.83,0,0,1-.728,3.51Zm11.871-1.213a1.828,1.828,0,0,1-1.057-3.322l.233-.169a1.828,1.828,0,1,1,2.183,2.933c-.1.073-.2.146-.307.22A1.8,1.8,0,0,1,190.418,206.714ZM175,205.592a1.819,1.819,0,0,1-1.254-.5c-.1-.092-.192-.183-.284-.275a1.83,1.83,0,0,1,2.6-2.576c.064.064.128.128.192.188A1.83,1.83,0,0,1,175,205.592Zm18.41-1.885a1.806,1.806,0,0,1-1.043-.329,1.833,1.833,0,0,1-.458-2.549l.165-.238a1.83,1.83,0,1,1,3.052,2.018c-.069.105-.137.206-.21.311A1.828,1.828,0,0,1,193.411,203.707Zm-20.945-1.519a1.831,1.831,0,0,1-1.634-1.007c-.055-.114-.114-.229-.165-.343a1.829,1.829,0,1,1,3.309-1.56c.041.087.082.169.124.256a1.832,1.832,0,0,1-.81,2.457A1.774,1.774,0,0,1,172.466,202.188Zm22.744-2.325a1.875,1.875,0,0,1-.471-.059,1.83,1.83,0,0,1-1.3-2.238l.073-.284a1.829,1.829,0,1,1,3.556.856c-.027.124-.059.243-.091.366A1.831,1.831,0,0,1,195.21,199.863Zm-23.97-1.757a1.814,1.814,0,0,1-1.808-1.588c0-.014-.009-.064-.009-.078-.009-.087-.023-.2-.032-.316a1.829,1.829,0,0,1,3.643-.329l.027.256a1.843,1.843,0,0,1-1.6,2.041A1.785,1.785,0,0,1,171.24,198.106Zm.252-4.219a1.679,1.679,0,0,1-.421-.05,1.828,1.828,0,0,1-1.359-2.2c.027-.124.059-.247.092-.371a1.83,1.83,0,1,1,3.537.938l-.069.275A1.834,1.834,0,0,1,171.491,193.887Zm22.963-2.416a1.833,1.833,0,0,1-1.657-1.048c-.041-.082-.082-.169-.124-.252a1.829,1.829,0,1,1,3.263-1.652c.059.114.114.229.169.348a1.828,1.828,0,0,1-.874,2.435A1.848,1.848,0,0,1,194.455,191.47Zm-21.284-1.483a1.8,1.8,0,0,1-1-.3,1.829,1.829,0,0,1-.522-2.535c.069-.105.142-.211.215-.316a1.829,1.829,0,1,1,3,2.091c-.055.078-.11.156-.16.238A1.848,1.848,0,0,1,173.171,189.988ZM192,188.011a1.819,1.819,0,0,1-1.29-.535c-.069-.064-.133-.133-.2-.2a1.829,1.829,0,1,1,2.508-2.663c.092.087.183.174.275.265a1.824,1.824,0,0,1,0,2.586A1.787,1.787,0,0,1,192,188.011Zm-15.921-1.117a1.832,1.832,0,0,1-1.1-3.3c.1-.073.2-.151.307-.224a1.828,1.828,0,0,1,2.114,2.984l-.233.169A1.771,1.771,0,0,1,176.081,186.894Zm12.433-1.3a1.863,1.863,0,0,1-.76-.165l-.27-.119a1.832,1.832,0,0,1,1.455-3.363c.114.05.229.1.339.151a1.832,1.832,0,0,1-.764,3.5Zm-8.649-.6a1.828,1.828,0,0,1-.531-3.579l.38-.11a1.83,1.83,0,1,1,.938,3.537c-.087.023-.174.046-.261.073A1.746,1.746,0,0,1,179.866,184.986Zm4.549-.48c-.046,0-.1,0-.142,0l-.3-.023a1.829,1.829,0,0,1,.211-3.652l.366.023a1.831,1.831,0,0,1-.137,3.656Z" transform="translate(-129.511 -176.081)" fill="#d75b27"/><path d="M188.771,210.007h-.037c-.137,0-.279-.009-.416-.018a1.83,1.83,0,1,1,.238-3.652c.082,0,.165.009.252.009a1.831,1.831,0,0,1-.037,3.661Zm3.835-.943a1.829,1.829,0,0,1-.892-3.428c.073-.041.151-.082.224-.128a1.831,1.831,0,1,1,1.908,3.126c-.114.069-.233.137-.352.206A1.893,1.893,0,0,1,192.606,209.064Zm-7.9-.339a1.829,1.829,0,0,1-1.02-.311c-.11-.073-.215-.151-.325-.224a1.829,1.829,0,0,1,2.142-2.965c.073.055.146.105.22.156a1.827,1.827,0,0,1-1.016,3.345Zm10.905-2.686A1.83,1.83,0,0,1,194,203.33c.041-.073.078-.146.114-.22a1.83,1.83,0,0,1,3.286,1.611q-.089.185-.192.371A1.823,1.823,0,0,1,195.608,206.039Zm-13.646-.581a1.827,1.827,0,0,1-1.675-1.094c-.055-.128-.11-.256-.16-.389a1.83,1.83,0,0,1,3.418-1.309c.027.078.059.151.092.224a1.831,1.831,0,0,1-1.675,2.567Zm14.548-3.588a1.829,1.829,0,0,1-1.821-1.707c0-.082-.014-.165-.023-.247l-.023-.169a1.83,1.83,0,1,1,3.624-.513l.032.265c.018.142.027.279.037.421a1.832,1.832,0,0,1-1.7,1.949Zm-15.092-.641a2.032,2.032,0,0,1-.284-.023,1.835,1.835,0,0,1-1.528-2.091c.023-.137.046-.275.073-.407a1.828,1.828,0,0,1,3.583.728c-.018.082-.032.165-.046.247A1.819,1.819,0,0,1,181.417,201.23Zm13.481-3.537a1.827,1.827,0,0,1-1.432-.691c-.055-.069-.11-.137-.165-.2a1.83,1.83,0,1,1,2.773-2.389c.087.1.174.206.256.311a1.83,1.83,0,0,1-1.432,2.97Zm-11.669-.325a1.831,1.831,0,0,1-1.373-3.039l.288-.316a1.827,1.827,0,1,1,2.613,2.553c-.055.055-.11.114-.16.174A1.786,1.786,0,0,1,183.23,197.367Zm8.191-2.146a1.776,1.776,0,0,1-.609-.105c-.078-.027-.156-.05-.233-.073a1.83,1.83,0,1,1,1.053-3.505c.137.041.27.082.4.133a1.827,1.827,0,0,1-.613,3.551Zm-4.581-.128a1.83,1.83,0,0,1-.494-3.592c.128-.037.256-.069.384-.1a1.83,1.83,0,1,1,.865,3.556c-.087.023-.174.041-.261.069A1.865,1.865,0,0,1,186.84,195.093Z" transform="translate(-135.044 -181.79)" fill="#e6b222"/><g transform="translate(0 14.735)"><path d="M83.73,212.357c0,.279-.435.783-.778.595-.371-.11-.7-.325-.7-.627-.041-.16.334-.508.778-.595A.534.534,0,0,1,83.73,212.357Z" transform="translate(-82.253 -207.571)" fill="#f1ca16"/><path d="M91.3,209.168c-.082.6-.435.636-1,.7a1.015,1.015,0,0,1-.938-.828c-.027-.293.444-.668,1-.7A.8.8,0,0,1,91.3,209.168Z" transform="translate(-86.106 -205.732)" fill="#f1ca16"/><path d="M99.746,206.644c-.069.416-.178.549-.371.613-.229.165-.462.041-.86.188a2.2,2.2,0,0,0-.842-.352.7.7,0,0,1-.334-.682c-.059-.073.174-.535.371-.613a4.3,4.3,0,0,0,.86-.188c.288.146.6.233.842.352A.729.729,0,0,1,99.746,206.644Z" transform="translate(-90.43 -204.26)" fill="#d75b27"/><path d="M109.1,204.719c-.009.3-.22.668-.435.7-.339.371-.81.751-1.025.192-.572.435-.769-.169-1.011-.43-.265-.2-.476-.329-.407-.8.009-.3.284-.847.435-.7a2.015,2.015,0,0,1,1.025-.192c.462-.128.746.233,1.011.43C108.906,204.266,109.112,204.417,109.1,204.719Z" transform="translate(-95.248 -203.095)" fill="#d75b27"/><path d="M119.1,204.1c.069.133-.384,1.139-.5.8-.343.279-.572-.16-1.185.2a2.505,2.505,0,0,1-1.181-.513c-.389-.014-.632-.192-.48-.924a.981.981,0,0,1,.5-.8c.137.284.664-.092,1.185-.2.384.27.943.078,1.181.513A.952.952,0,0,1,119.1,204.1Z" transform="translate(-100.4 -202.66)" fill="#d75b27"/><path d="M130,204.358c0,.366-.146.494-.563.888a3.127,3.127,0,0,0-1.35.211,5.647,5.647,0,0,0-.732-.233,1.025,1.025,0,0,0-.613-.357c-.279-.471-.563-.645-.554-1.048-.06-.21.284-.874.563-.888.247-.3.293.064.59-.165.174.11.458.027.76-.046.435.32,1.034.2,1.345.59C129.871,203.393,129.986,204.029,130,204.358Z" transform="translate(-106.081 -202.693)" fill="#d75b27"/><path d="M141.24,206.506c-.014.453-.178.595-.627.979-.224.192-.513.435-.7.284-.174-.188-.5-.05-.81-.064-.224-.238-.618-.023-.833-.238-.3,0-.494-.238-.677-.43-.27-.659-.718-.5-.627-1.167.05-.558.174-.586.627-.979.146.027.444-.233.682-.224a.736.736,0,0,1,.833,0c.275.1.467.426.8.348.256.11.444.384.718.325C140.919,205.893,141.231,206.113,141.24,206.506Z" transform="translate(-111.922 -203.678)" fill="#711c12"/><path d="M152.482,211c-.133.467-.27.48-.8.755-.265-.124-.961.078-1.373-.362a3.568,3.568,0,0,1-.7-.517,1.719,1.719,0,0,1-.453-.746,1.509,1.509,0,0,1-.252-1.428,1.046,1.046,0,0,1,.8-.755.812.812,0,0,1,.654.027c.215.087.439.224.718.334.471.348,1.043.549,1.149,1.263C152.422,210.163,152.7,210.41,152.482,211Z" transform="translate(-118.368 -205.5)" fill="#711c12"/></g></g><g transform="translate(173.954 151.13)"><path d="M288.36,252.622a3.859,3.859,0,0,1,.288,1.359,2.888,2.888,0,0,1-.22,1.149,2.6,2.6,0,0,1-.645.9,3.323,3.323,0,0,1-.979.6,3.172,3.172,0,0,1-1.13.229,2.512,2.512,0,0,1-1.085-.215,2.976,2.976,0,0,1-.952-.686,4.072,4.072,0,0,1-1-2.54,2.777,2.777,0,0,1,.233-1.153,2.661,2.661,0,0,1,.65-.9,3.141,3.141,0,0,1,.97-.6,3.094,3.094,0,0,1,1.117-.224,2.6,2.6,0,0,1,1.085.22,2.976,2.976,0,0,1,.952.686A3.554,3.554,0,0,1,288.36,252.622Zm-4.384,1.73a3.186,3.186,0,0,0,.444.792,1.966,1.966,0,0,0,.581.513,1.552,1.552,0,0,0,.682.2,1.731,1.731,0,0,0,.755-.128,1.749,1.749,0,0,0,.631-.416,1.637,1.637,0,0,0,.362-.613,2,2,0,0,0,.078-.769,3.183,3.183,0,0,0-.215-.883,3.307,3.307,0,0,0-.444-.8,1.965,1.965,0,0,0-.581-.513,1.552,1.552,0,0,0-.682-.2,1.838,1.838,0,0,0-1.387.545,1.564,1.564,0,0,0-.362.618,2.1,2.1,0,0,0-.078.769A3.221,3.221,0,0,0,283.976,254.352Z" transform="translate(-282.64 -242.527)" fill="#3f121d"/><path d="M296.86,250.262a8.094,8.094,0,0,1,.7-.4,6.992,6.992,0,0,1,1.007-.4,2.493,2.493,0,0,1,.934-.133,1.459,1.459,0,0,1,.7.229,1.7,1.7,0,0,1,.5.535,3.605,3.605,0,0,1,.343.783l.769,2.444-1.007.316-.719-2.284a3.465,3.465,0,0,0-.233-.581,1.179,1.179,0,0,0-.275-.352.612.612,0,0,0-.352-.137,1.236,1.236,0,0,0-.458.069,3.773,3.773,0,0,0-.389.151c-.133.06-.233.105-.293.137l1.1,3.505-1.007.316Z" transform="translate(-290.353 -241.869)" fill="#3f121d"/><path d="M308.263,249.237a2.924,2.924,0,0,1-.092-1.066,2.3,2.3,0,0,1,.27-.847,2.045,2.045,0,0,1,.545-.609,2.188,2.188,0,0,1,.723-.343,1.86,1.86,0,0,1,1.565.2,2.517,2.517,0,0,1,.943,1.556c.014.055.027.119.046.192s.027.137.037.192l-2.91.75a1.209,1.209,0,0,0,.586.728,1.458,1.458,0,0,0,1.039.041,3.516,3.516,0,0,0,.664-.243,3.131,3.131,0,0,0,.448-.265l.348.8a1.765,1.765,0,0,1-.211.146,3.3,3.3,0,0,1-.316.169c-.119.059-.252.114-.394.169a4.479,4.479,0,0,1-.439.142,2.785,2.785,0,0,1-1.057.087,1.925,1.925,0,0,1-1.432-.915A3.533,3.533,0,0,1,308.263,249.237Zm2.846-1.217a1.446,1.446,0,0,0-.16-.384,1.024,1.024,0,0,0-.256-.284.812.812,0,0,0-.334-.146.856.856,0,0,0-.412.023.97.97,0,0,0-.389.192.927.927,0,0,0-.238.311,1.139,1.139,0,0,0-.105.38,1.692,1.692,0,0,0,0,.4Z" transform="translate(-296.479 -240.222)" fill="#3f121d"/><path d="M323.294,245.725a2.816,2.816,0,0,1-.027-.956,2.21,2.21,0,0,1,.3-.833,2.127,2.127,0,0,1,.6-.632,2.3,2.3,0,0,1,.888-.357,3.142,3.142,0,0,1,1.24,0l-.059.888a2.412,2.412,0,0,0-.43-.05,2.324,2.324,0,0,0-.494.041,1.167,1.167,0,0,0-.851.558,1.687,1.687,0,0,0-.11,1.135,1.739,1.739,0,0,0,.5,1,1.225,1.225,0,0,0,1.085.192,2.754,2.754,0,0,0,.512-.151,2.394,2.394,0,0,0,.421-.215l.311.828a2.209,2.209,0,0,1-.49.256,3.627,3.627,0,0,1-.7.206,2.708,2.708,0,0,1-1.03.018,1.913,1.913,0,0,1-.8-.352,2.087,2.087,0,0,1-.558-.664A3.287,3.287,0,0,1,323.294,245.725Z" transform="translate(-304.659 -238.375)" fill="#3f121d"/><path d="M336.369,243.492a2.913,2.913,0,0,1,0,1,2.2,2.2,0,0,1-.325.819,1.974,1.974,0,0,1-.609.59,2.252,2.252,0,0,1-.856.311,2.216,2.216,0,0,1-.906-.037,1.953,1.953,0,0,1-.755-.375,2.234,2.234,0,0,1-.558-.682,2.851,2.851,0,0,1-.311-.947,2.881,2.881,0,0,1,.009-.993,2.262,2.262,0,0,1,.329-.815,2.011,2.011,0,0,1,.609-.586,2.378,2.378,0,0,1,1.744-.27,1.932,1.932,0,0,1,.76.371,2.27,2.27,0,0,1,.558.677A2.671,2.671,0,0,1,336.369,243.492Zm-1.066.165a1.751,1.751,0,0,0-.453-1.016,1.032,1.032,0,0,0-1.606.252,2.142,2.142,0,0,0,.334,2.137,1.025,1.025,0,0,0,1.606-.252A1.83,1.83,0,0,0,335.3,243.657Z" transform="translate(-309.415 -237.594)" fill="#3f121d"/><path d="M346.191,241.771a2.233,2.233,0,0,0-.293-1.007.7.7,0,0,0-.7-.243,3.559,3.559,0,0,0-.38.069c-.137.032-.238.06-.307.078l.407,3.652-1.048.114-.485-4.379a7.374,7.374,0,0,1,.773-.252,6.9,6.9,0,0,1,1.025-.192,2,2,0,0,1,.778.037,1.506,1.506,0,0,1,.535.265,2.152,2.152,0,0,1,.224-.174,2.221,2.221,0,0,1,.311-.178,3.553,3.553,0,0,1,.375-.151,2.023,2.023,0,0,1,.407-.092,2.264,2.264,0,0,1,.888.055,1.308,1.308,0,0,1,.586.366,1.658,1.658,0,0,1,.343.627,4.746,4.746,0,0,1,.169.837l.284,2.544-1.048.114-.265-2.38a2.261,2.261,0,0,0-.288-1.007.7.7,0,0,0-.7-.243,1.317,1.317,0,0,0-.467.137,1.74,1.74,0,0,0-.32.2,2.239,2.239,0,0,1,.146.448,4.217,4.217,0,0,1,.082.517l.279,2.5-1.048.114Z" transform="translate(-315.59 -236.431)" fill="#3f121d"/><path d="M362.667,240.371a2.2,2.2,0,0,0-.247-1.016.7.7,0,0,0-.686-.275,3.226,3.226,0,0,0-.38.05c-.137.027-.243.046-.311.064l.247,3.67-1.052.069-.3-4.4a6.768,6.768,0,0,1,.782-.22,6.542,6.542,0,0,1,1.034-.146,2.225,2.225,0,0,1,.778.069,1.511,1.511,0,0,1,.522.288,1.975,1.975,0,0,1,.233-.165,2.321,2.321,0,0,1,.32-.165,3.083,3.083,0,0,1,.38-.133,2.042,2.042,0,0,1,.412-.073,2.251,2.251,0,0,1,.883.092,1.3,1.3,0,0,1,.567.389,1.716,1.716,0,0,1,.316.641,4.569,4.569,0,0,1,.133.842l.169,2.554-1.053.069-.16-2.389a2.272,2.272,0,0,0-.243-1.016.7.7,0,0,0-.691-.27,1.454,1.454,0,0,0-.471.114,1.692,1.692,0,0,0-.329.183,2.741,2.741,0,0,1,.128.453,4.354,4.354,0,0,1,.059.517l.169,2.512-1.052.069Z" transform="translate(-324.566 -235.717)" fill="#3f121d"/><path d="M380.3,241.971c-.2.06-.462.124-.787.188a6.716,6.716,0,0,1-1.066.119,2.346,2.346,0,0,1-.924-.124,1.5,1.5,0,0,1-.609-.412,1.688,1.688,0,0,1-.343-.654,3.653,3.653,0,0,1-.128-.847l-.091-2.554,1.052-.037.087,2.384a1.927,1.927,0,0,0,.252,1.039.829.829,0,0,0,.755.284c.128,0,.261-.014.4-.032a2.652,2.652,0,0,0,.316-.055l-.133-3.684,1.052-.037Z" transform="translate(-333.466 -235.482)" fill="#3f121d"/><path d="M387.57,237.49a7.993,7.993,0,0,1,.792-.178,6.993,6.993,0,0,1,1.08-.092,2.544,2.544,0,0,1,.934.137,1.425,1.425,0,0,1,.6.421,1.68,1.68,0,0,1,.325.659,3.724,3.724,0,0,1,.105.847l.037,2.563-1.053.014-.032-2.393a3.833,3.833,0,0,0-.055-.622,1.087,1.087,0,0,0-.165-.416.68.68,0,0,0-.3-.233,1.339,1.339,0,0,0-.458-.069,3.32,3.32,0,0,0-.416.032c-.146.018-.252.037-.32.05l.05,3.675-1.053.014Z" transform="translate(-339.552 -235.302)" fill="#3f121d"/><path d="M399.7,233.684a.611.611,0,0,1-.192.471.66.66,0,0,1-.453.174.675.675,0,0,1-.462-.174.6.6,0,0,1-.192-.471.624.624,0,0,1,.192-.481.675.675,0,0,1,.462-.174.66.66,0,0,1,.453.174A.624.624,0,0,1,399.7,233.684Zm-.119,5.89h-1.053v-4.558h1.053Z" transform="translate(-345.426 -233.03)" fill="#3f121d"/><path d="M403.72,234.57l1.057-.16-.014,1.377,1.62.018-.009.879-1.62-.018-.023,1.853a1.353,1.353,0,0,0,.165.787.689.689,0,0,0,.59.243,2.173,2.173,0,0,0,.513-.055,2.536,2.536,0,0,0,.352-.11l.165.837a3.731,3.731,0,0,1-.481.156,2.459,2.459,0,0,1-.7.073,2.2,2.2,0,0,1-.815-.142,1.2,1.2,0,0,1-.512-.384,1.511,1.511,0,0,1-.265-.6,3.6,3.6,0,0,1-.069-.805Z" transform="translate(-348.289 -233.779)" fill="#3f121d"/><path d="M415.073,237.58a32.624,32.624,0,0,1-1.757,4.659,5.113,5.113,0,0,1-.375.664,2.01,2.01,0,0,1-.421.453,1.449,1.449,0,0,1-.513.252,2.19,2.19,0,0,1-.65.064,2.381,2.381,0,0,1-.48-.064,1.314,1.314,0,0,1-.357-.124l.215-.837a1.674,1.674,0,0,0,.618.137.98.98,0,0,0,.65-.178,1.643,1.643,0,0,0,.421-.595q-.474-.968-.9-2.114a22.153,22.153,0,0,1-.755-2.425l1.121.027q.076.371.192.8c.078.288.16.577.252.874s.188.59.293.883.206.567.311.819c.2-.513.384-1.057.563-1.638s.339-1.139.485-1.684Z" transform="translate(-352 -235.438)" fill="#3f121d"/><path d="M421.7,245.211a1.362,1.362,0,0,1,.009.22c0,.046,0,.092,0,.137a3.906,3.906,0,0,1-.211,1.107,4.8,4.8,0,0,1-.512,1.071l-.819-.256a4.447,4.447,0,0,0,.32-.979,5.985,5.985,0,0,0,.105-.847c0-.069,0-.156,0-.261s0-.183,0-.233Z" transform="translate(-357.228 -239.615)" fill="#3f121d"/><path d="M433.257,240.428a2.219,2.219,0,0,0-.119-1.039.7.7,0,0,0-.65-.357,3.663,3.663,0,0,0-.384,0q-.213.014-.316.027l-.206,3.67-1.053-.059.247-4.4a6.9,6.9,0,0,1,.805-.119,6.538,6.538,0,0,1,1.043-.018,2.129,2.129,0,0,1,.764.165,1.424,1.424,0,0,1,.48.352,2.052,2.052,0,0,1,.252-.133,2.633,2.633,0,0,1,.339-.124,3.313,3.313,0,0,1,.394-.087,1.8,1.8,0,0,1,.416-.018,2.15,2.15,0,0,1,.865.2,1.294,1.294,0,0,1,.517.458,1.723,1.723,0,0,1,.233.677,4.675,4.675,0,0,1,.027.851l-.142,2.558-1.053-.059.133-2.393a2.293,2.293,0,0,0-.114-1.039.7.7,0,0,0-.65-.357,1.387,1.387,0,0,0-.481.055,1.575,1.575,0,0,0-.348.142,2.491,2.491,0,0,1,.069.467,4,4,0,0,1,0,.522l-.142,2.512-1.053-.059Z" transform="translate(-362.853 -235.792)" fill="#3f121d"/><path d="M448.4,239.075a2.629,2.629,0,0,1,.869.192,1.434,1.434,0,0,1,.545.407,1.365,1.365,0,0,1,.265.59,2.8,2.8,0,0,1,.037.741l-.2,2.755c-.165.023-.412.046-.741.073a7.539,7.539,0,0,1-1.112,0,3.2,3.2,0,0,1-.741-.133,1.541,1.541,0,0,1-.558-.293,1.218,1.218,0,0,1-.343-.48,1.571,1.571,0,0,1-.087-.7,1.33,1.33,0,0,1,.2-.65,1.224,1.224,0,0,1,.444-.407,1.779,1.779,0,0,1,.622-.2,3.436,3.436,0,0,1,.723-.023,3.551,3.551,0,0,1,.362.046,3.1,3.1,0,0,1,.4.105l.014-.174a1.3,1.3,0,0,0-.018-.352.7.7,0,0,0-.133-.3.73.73,0,0,0-.275-.215,1.247,1.247,0,0,0-.444-.1,3.643,3.643,0,0,0-.673,0,2.753,2.753,0,0,0-.5.087l-.069-.86a4.156,4.156,0,0,1,.59-.1A4.4,4.4,0,0,1,448.4,239.075ZM448.2,243a3.912,3.912,0,0,0,.741,0l.082-1.162a1.593,1.593,0,0,0-.247-.069,2.088,2.088,0,0,0-.362-.05,2.263,2.263,0,0,0-.352,0,1.083,1.083,0,0,0-.329.073.6.6,0,0,0-.243.178.541.541,0,0,0-.11.311.56.56,0,0,0,.2.535A1.319,1.319,0,0,0,448.2,243Z" transform="translate(-371.421 -236.301)" fill="#3f121d"/><path d="M457.161,240.02a7.5,7.5,0,0,1,.805-.1,6.2,6.2,0,0,1,1.085.014,2.458,2.458,0,0,1,.915.229,1.435,1.435,0,0,1,.558.476,1.611,1.611,0,0,1,.256.686,3.517,3.517,0,0,1,.018.856l-.215,2.553-1.048-.087.2-2.389a3.613,3.613,0,0,0,0-.627,1.111,1.111,0,0,0-.124-.43.63.63,0,0,0-.275-.261,1.217,1.217,0,0,0-.449-.11,4.208,4.208,0,0,0-.421-.009c-.146,0-.256.009-.325.018l-.307,3.661-1.053-.087Z" transform="translate(-377.096 -236.757)" fill="#3f121d"/><path d="M470.732,241.053a33.214,33.214,0,0,1-2.068,4.53,4.5,4.5,0,0,1-.421.636,1.86,1.86,0,0,1-.453.421,1.471,1.471,0,0,1-.526.215,2.3,2.3,0,0,1-.65.023,2.144,2.144,0,0,1-.476-.1,1.459,1.459,0,0,1-.348-.146l.27-.824a1.684,1.684,0,0,0,.609.178.96.96,0,0,0,.659-.133,1.6,1.6,0,0,0,.462-.563q-.4-1-.76-2.174a22.455,22.455,0,0,1-.59-2.471l1.117.105q.055.371.137.81c.06.293.124.586.192.888s.146.6.233.9.169.577.256.837q.35-.748.673-1.592c.215-.567.416-1.117.6-1.647Z" transform="translate(-381.977 -237.163)" fill="#3f121d"/><path d="M481.736,244.513a2.909,2.909,0,0,1,.256-.924,2.3,2.3,0,0,1,.526-.709,2.067,2.067,0,0,1,.76-.426,2.336,2.336,0,0,1,.956-.082,3.217,3.217,0,0,1,1.19.362l-.316.833a2.31,2.31,0,0,0-.4-.174,2.276,2.276,0,0,0-.485-.105,1.14,1.14,0,0,0-.975.284,1.659,1.659,0,0,0-.439,1.053,1.707,1.707,0,0,0,.188,1.1,1.214,1.214,0,0,0,.979.5,2.99,2.99,0,0,0,.535,0,2.4,2.4,0,0,0,.462-.082l.055.883a2.271,2.271,0,0,1-.54.1,3.572,3.572,0,0,1-.732-.009,2.672,2.672,0,0,1-.988-.284,1.909,1.909,0,0,1-.659-.572,2,2,0,0,1-.339-.8A3.13,3.13,0,0,1,481.736,244.513Z" transform="translate(-390.615 -238.088)" fill="#3f121d"/><path d="M490.73,245.224l.76-6.544,1.066-.05-.261,2.242a2.49,2.49,0,0,1,.416-.055,2.534,2.534,0,0,1,.458.009,2.372,2.372,0,0,1,.888.256,1.434,1.434,0,0,1,.526.49,1.675,1.675,0,0,1,.233.686,3.629,3.629,0,0,1-.009.86l-.293,2.544-1.048-.124.275-2.38a3.331,3.331,0,0,0,.023-.622,1.063,1.063,0,0,0-.11-.435.609.609,0,0,0-.261-.265,1.135,1.135,0,0,0-.439-.124,1.927,1.927,0,0,0-.43,0q-.22.021-.329.041l-.416,3.6Z" transform="translate(-395.504 -236.067)" fill="#3f121d"/><path d="M506.047,247.342a2.92,2.92,0,0,1-.279.956,2.222,2.222,0,0,1-.535.7,2.024,2.024,0,0,1-.746.4,2.283,2.283,0,0,1-.906.064,2.172,2.172,0,0,1-.86-.284,2,2,0,0,1-.622-.567,2.181,2.181,0,0,1-.352-.805,2.878,2.878,0,0,1-.037-1,2.79,2.79,0,0,1,.284-.952,2.161,2.161,0,0,1,.545-.691,1.984,1.984,0,0,1,.746-.394,2.222,2.222,0,0,1,.892-.059,2.273,2.273,0,0,1,.856.279,1.963,1.963,0,0,1,.627.567,2.228,2.228,0,0,1,.352.8A2.816,2.816,0,0,1,506.047,247.342Zm-1.075-.137a1.783,1.783,0,0,0-.156-1.1.942.942,0,0,0-.76-.494.953.953,0,0,0-.856.293,1.776,1.776,0,0,0-.421,1.03,1.827,1.827,0,0,0,.156,1.117.958.958,0,0,0,.76.5.945.945,0,0,0,.86-.3A1.823,1.823,0,0,0,504.971,247.2Z" transform="translate(-401.444 -239.352)" fill="#3f121d"/><path d="M513.863,248.25l-1.043-.137.595-4.517,1.043.137Zm.879-5.825a.6.6,0,0,1-.252.439.66.66,0,0,1-.471.114.652.652,0,0,1-.435-.233.6.6,0,0,1-.128-.49.61.61,0,0,1,.252-.448.678.678,0,0,1,.481-.114.642.642,0,0,1,.425.233A.6.6,0,0,1,514.742,242.425Z" transform="translate(-407.485 -237.725)" fill="#3f121d"/><path d="M517.953,248.919a2.816,2.816,0,0,1,.284-.915,2.229,2.229,0,0,1,.549-.7,2.016,2.016,0,0,1,.773-.4,2.361,2.361,0,0,1,.956-.055,3.227,3.227,0,0,1,1.176.4l-.343.824a2.422,2.422,0,0,0-.394-.183,2.172,2.172,0,0,0-.481-.119,1.164,1.164,0,0,0-.984.256,1.671,1.671,0,0,0-.467,1.039,1.74,1.74,0,0,0,.156,1.107,1.213,1.213,0,0,0,.966.531,2.621,2.621,0,0,0,.535.018,2.192,2.192,0,0,0,.467-.069l.027.883a2.2,2.2,0,0,1-.545.082,3.6,3.6,0,0,1-.732-.032,2.52,2.52,0,0,1-.979-.316,1.9,1.9,0,0,1-.641-.59,2,2,0,0,1-.316-.81A3.14,3.14,0,0,1,517.953,248.919Z" transform="translate(-410.252 -240.513)" fill="#3f121d"/><path d="M526.778,250.153a2.8,2.8,0,0,1,.325-1.016,2.164,2.164,0,0,1,.577-.677,1.994,1.994,0,0,1,.737-.352,2.131,2.131,0,0,1,.8-.041,1.866,1.866,0,0,1,1.368.787,2.52,2.52,0,0,1,.275,1.8c-.009.055-.018.124-.032.192s-.027.137-.041.192l-2.975-.426a1.217,1.217,0,0,0,.261.9,1.487,1.487,0,0,0,.943.439,3.416,3.416,0,0,0,.7.032,2.9,2.9,0,0,0,.517-.078l.014.874a1.528,1.528,0,0,1-.252.055,3.585,3.585,0,0,1-.357.037c-.133.009-.274.009-.426,0a4.024,4.024,0,0,1-.462-.041,2.769,2.769,0,0,1-1.011-.325,1.96,1.96,0,0,1-.654-.595,2.013,2.013,0,0,1-.316-.8A3.729,3.729,0,0,1,526.778,250.153Zm3.094-.032a1.62,1.62,0,0,0,0-.421,1.03,1.03,0,0,0-.128-.362.869.869,0,0,0-.252-.265.893.893,0,0,0-.389-.137.906.906,0,0,0-.435.032.919.919,0,0,0-.339.192,1.139,1.139,0,0,0-.243.307,1.785,1.785,0,0,0-.151.375Z" transform="translate(-415.037 -241.175)" fill="#3f121d"/><path d="M538.2,253.3a1.409,1.409,0,0,0,.618-.009.36.36,0,0,0,.243-.311.451.451,0,0,0-.146-.4,3.02,3.02,0,0,0-.618-.421,5.322,5.322,0,0,1-.49-.3,1.746,1.746,0,0,1-.371-.334,1.129,1.129,0,0,1-.215-.416,1.29,1.29,0,0,1-.018-.554,1.2,1.2,0,0,1,.6-.911,1.991,1.991,0,0,1,1.3-.174,3.786,3.786,0,0,1,.746.188,4.044,4.044,0,0,1,.522.224l-.316.815a2.517,2.517,0,0,0-.416-.206,2.623,2.623,0,0,0-.609-.156,1.068,1.068,0,0,0-.535.032.355.355,0,0,0-.247.3.517.517,0,0,0,.009.206.442.442,0,0,0,.11.178,1.533,1.533,0,0,0,.229.183,3.774,3.774,0,0,0,.357.206,5.927,5.927,0,0,1,.59.366,1.713,1.713,0,0,1,.38.366,1.055,1.055,0,0,1,.188.421,1.445,1.445,0,0,1,0,.526,1.128,1.128,0,0,1-.627.906,2.413,2.413,0,0,1-1.414.128,3.866,3.866,0,0,1-.943-.243,4.575,4.575,0,0,1-.485-.233l.311-.842a4.762,4.762,0,0,0,.531.265A2.728,2.728,0,0,0,538.2,253.3Z" transform="translate(-420.405 -241.929)" fill="#3f121d"/></g><path d="M224.542,204.466a1.828,1.828,0,0,0-1.931,1.721l-.018.288a1.83,1.83,0,0,0,1.675,1.972,1.792,1.792,0,0,0,.471-.023,1.83,1.83,0,0,0,1.5-1.652c.009-.124.018-.252.027-.375A1.835,1.835,0,0,0,224.542,204.466Z" transform="translate(-76.114 -66.405)" fill="#d75b27"/></g></svg>